<svg width="40" height="38" viewBox="0 0 40 38" fill="none" xmlns="http://www.w3.org/2000/svg">
<path d="M23.0834 37.7668C24.6772 37.7669 26.2109 37.1581 27.3707 36.0648C28.5305 34.9716 29.2289 33.4766 29.3229 31.8855L29.3334 31.5168V23.1834H33.5C35.0315 23.1837 36.5098 22.6216 37.6543 21.6039C38.7987 20.5862 39.5297 19.1836 39.7084 17.6626L39.7396 17.3022L39.75 16.9334L39.7084 16.5251L37.6125 6.04176C36.8188 2.65634 34.4834 0.21676 31.7584 0.250093L31.4167 0.26676H14.75C14.2394 0.266887 13.7467 0.45452 13.3653 0.794028C12.9839 1.13354 12.7405 1.60128 12.6813 2.10843L12.6667 2.35009L12.6688 22.2168C12.6688 22.5825 12.765 22.9417 12.9479 23.2584C13.1307 23.5751 13.3937 23.8381 13.7104 24.0209C14.5985 24.5338 15.3467 25.2575 15.8888 26.1281C16.4309 26.9986 16.7503 27.9893 16.8188 29.0126L16.8334 29.4334V31.5168C16.8334 33.1744 17.4918 34.7641 18.6639 35.9362C19.836 37.1083 21.4258 37.7668 23.0834 37.7668Z" fill="white"/>
<path d="M6.41669 23.1835C6.92696 23.1834 7.41947 22.9961 7.8008 22.657C8.18212 22.3179 8.42573 21.8507 8.48544 21.3439L8.50002 21.1001V2.35013C8.49995 1.83985 8.31261 1.34734 7.97353 0.96602C7.63445 0.584697 7.16721 0.341081 6.66044 0.281379L6.41669 0.266795H4.33335C3.28149 0.266541 2.26844 0.664133 1.49754 1.37977C0.726646 2.09542 0.254942 3.07614 0.177104 4.12513L0.166687 4.43763V19.021C0.16688 20.0718 0.564128 21.0838 1.27885 21.8541C1.99357 22.6245 2.97297 23.0963 4.02085 23.1751L4.33335 23.1855L6.41669 23.1835Z" fill="white"/>
<path d="M23.0834 37.7668C24.6772 37.7669 26.2109 37.1581 27.3707 36.0648C28.5305 34.9716 29.2289 33.4766 29.3229 31.8855L29.3334 31.5168V23.1834H33.5C35.0315 23.1837 36.5098 22.6216 37.6543 21.6039C38.7987 20.5862 39.5297 19.1836 39.7084 17.6626L39.7396 17.3022L39.75 16.9334L39.7084 16.5251L37.6125 6.04176C36.8188 2.65634 34.4834 0.21676 31.7584 0.250093L31.4167 0.26676H14.75C14.2394 0.266887 13.7467 0.45452 13.3653 0.794028C12.9839 1.13354 12.7405 1.60128 12.6813 2.10843L12.6667 2.35009L12.6688 22.2168C12.6688 22.5825 12.765 22.9417 12.9479 23.2584C13.1307 23.5751 13.3937 23.8381 13.7104 24.0209C14.5985 24.5338 15.3467 25.2575 15.8888 26.1281C16.4309 26.9986 16.7503 27.9893 16.8188 29.0126L16.8334 29.4334V31.5168C16.8334 33.1744 17.4918 34.7641 18.6639 35.9362C19.836 37.1083 21.4258 37.7668 23.0834 37.7668Z" stroke="black"/>
<path d="M6.41669 23.1835C6.92696 23.1834 7.41947 22.9961 7.8008 22.657C8.18212 22.3179 8.42573 21.8507 8.48544 21.3439L8.50002 21.1001V2.35013C8.49995 1.83985 8.31261 1.34734 7.97353 0.96602C7.63445 0.584697 7.16721 0.341081 6.66044 0.281379L6.41669 0.266795H4.33335C3.28149 0.266541 2.26844 0.664133 1.49754 1.37977C0.726646 2.09542 0.254942 3.07614 0.177104 4.12513L0.166687 4.43763V19.021C0.16688 20.0718 0.564128 21.0838 1.27885 21.8541C1.99357 22.6245 2.97297 23.0963 4.02085 23.1751L4.33335 23.1855L6.41669 23.1835Z" stroke="black"/>
</svg>
