<svg width="104" height="105" viewBox="0 0 104 105" fill="none" xmlns="http://www.w3.org/2000/svg">
<path d="M56.3334 91.335C59.6486 91.3352 62.8387 90.0699 65.2511 87.7978C67.6636 85.5256 69.1161 82.4184 69.3117 79.1116L69.3334 78.3452V61.0254H78.0001C81.1856 61.026 84.2605 59.8577 86.6409 57.7425C89.0214 55.6273 90.5418 52.7124 90.9134 49.5511L90.9784 48.802L91.0001 48.0356L90.9134 47.187L86.5541 25.3988C84.9031 18.3626 80.0454 13.2923 74.3774 13.3615L73.6667 13.3962H39.0001C37.938 13.3964 36.9131 13.7864 36.1198 14.492C35.3266 15.1977 34.8203 16.1698 34.6971 17.2238L34.6667 17.7261L34.6711 59.0163C34.6711 59.7764 34.8713 60.523 35.2517 61.1813C35.632 61.8395 36.179 62.386 36.8377 62.7661C38.685 63.832 40.2411 65.3361 41.3687 67.1455C42.4963 68.9549 43.1607 71.0138 43.3031 73.1406L43.3334 74.0152V78.3452C43.3334 81.7903 44.703 85.0943 47.141 87.5303C49.579 89.9664 52.8856 91.335 56.3334 91.335Z" fill="white"/>
<path d="M21.6667 61.0255C22.7281 61.0254 23.7525 60.636 24.5457 59.9313C25.3388 59.2265 25.8456 58.2554 25.9697 57.2022L26.0001 56.6956V17.7262C25.9999 16.6656 25.6103 15.642 24.905 14.8495C24.1997 14.057 23.2278 13.5506 22.1737 13.4266L21.6667 13.3963H17.3334C15.1455 13.3957 13.0384 14.2221 11.4349 15.7094C9.83146 17.1968 8.85032 19.2351 8.68842 21.4153L8.66675 22.0648V52.3743C8.66715 54.5583 9.49342 56.6616 10.98 58.2626C12.4667 59.8637 14.5038 60.8444 16.6834 61.0082L17.3334 61.0298L21.6667 61.0255Z" fill="white"/>
<path d="M56.3334 91.335C59.6486 91.3352 62.8387 90.0699 65.2511 87.7978C67.6636 85.5256 69.1161 82.4184 69.3117 79.1116L69.3334 78.3452V61.0254H78.0001C81.1856 61.026 84.2605 59.8577 86.6409 57.7425C89.0214 55.6273 90.5418 52.7124 90.9134 49.5511L90.9784 48.802L91.0001 48.0356L90.9134 47.187L86.5541 25.3988C84.9031 18.3626 80.0454 13.2923 74.3774 13.3615L73.6667 13.3962H39.0001C37.938 13.3964 36.9131 13.7864 36.1198 14.492C35.3266 15.1977 34.8203 16.1698 34.6971 17.2238L34.6667 17.7261L34.6711 59.0163C34.6711 59.7764 34.8713 60.523 35.2517 61.1813C35.632 61.8395 36.179 62.386 36.8377 62.7661C38.685 63.832 40.2411 65.3361 41.3687 67.1455C42.4963 68.9549 43.1607 71.0138 43.3031 73.1406L43.3334 74.0152V78.3452C43.3334 81.7903 44.703 85.0943 47.141 87.5303C49.579 89.9664 52.8856 91.335 56.3334 91.335Z" stroke="black"/>
<path d="M21.6667 61.0255C22.7281 61.0254 23.7525 60.636 24.5457 59.9313C25.3388 59.2265 25.8456 58.2554 25.9697 57.2022L26.0001 56.6956V17.7262C25.9999 16.6656 25.6103 15.642 24.905 14.8495C24.1997 14.057 23.2278 13.5506 22.1737 13.4266L21.6667 13.3963H17.3334C15.1455 13.3957 13.0384 14.2221 11.4349 15.7094C9.83146 17.1968 8.85032 19.2351 8.68842 21.4153L8.66675 22.0648V52.3743C8.66715 54.5583 9.49342 56.6616 10.98 58.2626C12.4667 59.8637 14.5038 60.8444 16.6834 61.0082L17.3334 61.0298L21.6667 61.0255Z" stroke="black"/>
</svg>
