<svg width="83" height="79" viewBox="0 0 83 79" fill="none" xmlns="http://www.w3.org/2000/svg">
<path d="M48.3334 0.361328C51.6493 0.361144 54.84 1.62708 57.2525 3.90011C59.6651 6.17315 61.1172 9.28145 61.3117 12.5891L61.3334 13.3511V30.6709H70.0001C73.1856 30.6703 76.2605 31.8386 78.6409 33.9538C81.0214 36.069 82.5418 38.9839 82.9134 42.1452L82.9784 42.8986L83.0001 43.6607L82.9134 44.5093L78.5541 66.2975C76.9031 73.338 72.0454 78.404 66.3774 78.3348L65.6667 78.3001H31.0001C29.9387 78.3 28.9143 77.9106 28.1211 77.2059C27.328 76.5011 26.8213 75.5301 26.6971 74.4768L26.6667 73.9702L26.6711 32.6799C26.6719 31.9206 26.8725 31.1749 27.2527 30.5175C27.633 29.8601 28.1796 29.3142 28.8377 28.9346C30.6856 27.8682 32.2421 26.3634 33.3697 24.5532C34.4973 22.7431 35.1614 20.6832 35.3031 18.5557L35.3334 17.6811V13.3511C35.3334 9.90602 36.703 6.60201 39.141 4.16595C41.579 1.72989 44.8856 0.361328 48.3334 0.361328Z" fill="white"/>
<path d="M13.6667 30.6709C14.7281 30.671 15.7525 31.0604 16.5457 31.7651C17.3388 32.4698 17.8456 33.4409 17.9697 34.4942L18.0001 35.0008V73.9702C17.9999 75.0307 17.6103 76.0543 16.905 76.8469C16.1997 77.6394 15.2278 78.1457 14.1737 78.2698L13.6667 78.3001H9.33341C7.14692 78.3008 5.04096 77.4757 3.43771 75.9901C1.83445 74.5046 0.852403 72.4684 0.688416 70.2897L0.666748 69.6403V39.3307C0.666057 37.1459 1.49184 35.0416 2.97857 33.4396C4.46529 31.8376 6.50307 30.8564 8.68341 30.6925L9.33341 30.6709H13.6667Z" fill="white"/>
<path d="M48.3334 0.361328C51.6493 0.361144 54.84 1.62708 57.2525 3.90011C59.6651 6.17315 61.1172 9.28145 61.3117 12.5891L61.3334 13.3511V30.6709H70.0001C73.1856 30.6703 76.2605 31.8386 78.6409 33.9538C81.0214 36.069 82.5418 38.9839 82.9134 42.1452L82.9784 42.8986L83.0001 43.6607L82.9134 44.5093L78.5541 66.2975C76.9031 73.338 72.0454 78.404 66.3774 78.3348L65.6667 78.3001H31.0001C29.9387 78.3 28.9143 77.9106 28.1211 77.2059C27.328 76.5011 26.8213 75.5301 26.6971 74.4768L26.6667 73.9702L26.6711 32.6799C26.6719 31.9206 26.8725 31.1749 27.2527 30.5175C27.633 29.8601 28.1796 29.3142 28.8377 28.9346C30.6856 27.8682 32.2421 26.3634 33.3697 24.5532C34.4973 22.7431 35.1614 20.6832 35.3031 18.5557L35.3334 17.6811V13.3511C35.3334 9.90602 36.703 6.60201 39.141 4.16595C41.579 1.72989 44.8856 0.361328 48.3334 0.361328Z" stroke="black"/>
<path d="M13.6667 30.6709C14.7281 30.671 15.7525 31.0604 16.5457 31.7651C17.3388 32.4698 17.8456 33.4409 17.9697 34.4942L18.0001 35.0008V73.9702C17.9999 75.0307 17.6103 76.0543 16.905 76.8469C16.1997 77.6394 15.2278 78.1457 14.1737 78.2698L13.6667 78.3001H9.33341C7.14692 78.3008 5.04096 77.4757 3.43771 75.9901C1.83445 74.5046 0.852403 72.4684 0.688416 70.2897L0.666748 69.6403V39.3307C0.666057 37.1459 1.49184 35.0416 2.97857 33.4396C4.46529 31.8376 6.50307 30.8564 8.68341 30.6925L9.33341 30.6709H13.6667Z" stroke="black"/>
</svg>
