<svg width="41" height="38" viewBox="0 0 41 38" fill="none" xmlns="http://www.w3.org/2000/svg">
<path d="M23.639 0.25C25.2332 0.249911 26.7672 0.859011 27.9271 1.95267C29.0869 3.04634 29.7851 4.54189 29.8786 6.13333L29.889 6.5V14.8333H34.0557C35.5872 14.8331 37.0655 15.3952 38.2099 16.4129C39.3544 17.4306 40.0853 18.8331 40.264 20.3542L40.2953 20.7167L40.3057 21.0833L40.264 21.4917L38.1682 31.975C37.3744 35.3625 35.039 37.8 32.314 37.7667L31.9723 37.75H15.3057C14.7954 37.7499 14.3029 37.5626 13.9216 37.2235C13.5403 36.8844 13.2966 36.4172 13.2369 35.9104L13.2224 35.6667L13.2244 15.8C13.2248 15.4347 13.3212 15.0758 13.5041 14.7595C13.6869 14.4432 13.9497 14.1806 14.2661 13.9979C15.1545 13.4848 15.9028 12.7608 16.4449 11.8899C16.9871 11.0189 17.3063 10.0278 17.3744 9.00417L17.389 8.58333V6.5C17.389 4.8424 18.0475 3.25269 19.2196 2.08058C20.3917 0.90848 21.9814 0.25 23.639 0.25Z" fill="currentColor"/>
<path d="M6.97235 14.8333C7.48263 14.8334 7.97514 15.0207 8.35646 15.3598C8.73778 15.6989 8.9814 16.1661 9.0411 16.6729L9.05568 16.9167V35.6667C9.05562 36.1769 8.86828 36.6695 8.52919 37.0508C8.19011 37.4321 7.72287 37.6757 7.2161 37.7354L6.97235 37.75H4.88902C3.83782 37.7503 2.82534 37.3533 2.05454 36.6385C1.28375 35.9238 0.811608 34.9441 0.732768 33.8958L0.722351 33.5833V19C0.722019 17.9488 1.11903 16.9363 1.8338 16.1655C2.54857 15.3947 3.52828 14.9226 4.57652 14.8438L4.88902 14.8333H6.97235Z" fill="currentColor"/>
</svg>
